<svg width="54" height="54" viewBox="0 0 54 54" fill="none" xmlns="http://www.w3.org/2000/svg">
<circle cx="27" cy="27" r="27" fill="#8D4AFF"/>
<mask id="mask0_1878_2892" style="mask-type:alpha" maskUnits="userSpaceOnUse" x="0" y="0" width="54" height="54">
<circle cx="27" cy="27" r="27" fill="#FF6435"/>
</mask>
<g mask="url(#mask0_1878_2892)">
<circle cx="30.5" cy="17.5" r="3.5" fill="#D9D9D9"/>
<circle cx="30.5" cy="17.5" r="3.5" fill="url(#paint0_linear_1878_2892)"/>
<circle cx="30" cy="45" r="4" fill="#D9D9D9"/>
<circle cx="30" cy="45" r="4" fill="url(#paint1_linear_1878_2892)"/>
<circle cx="22" cy="18" r="3" fill="#D9D9D9"/>
<circle cx="22" cy="18" r="3" fill="url(#paint2_linear_1878_2892)"/>
<circle cx="30.5" cy="9.5" r="3.5" fill="#D9D9D9"/>
<circle cx="30.5" cy="9.5" r="3.5" fill="url(#paint3_linear_1878_2892)"/>
<circle cx="36.5" cy="14.5" r="2.5" fill="#D9D9D9"/>
<circle cx="36.5" cy="14.5" r="2.5" fill="url(#paint4_linear_1878_2892)"/>
<circle cx="23.5" cy="11.5" r="2.5" fill="#D9D9D9"/>
<circle cx="23.5" cy="11.5" r="2.5" fill="url(#paint5_linear_1878_2892)"/>
<circle cx="16.5" cy="14.5" r="2.5" fill="#D9D9D9"/>
<circle cx="16.5" cy="14.5" r="2.5" fill="url(#paint6_linear_1878_2892)"/>
<path d="M36.7285 18H16.2728C15.0195 18 14 19.0093 14 20.25V21.7263C14 22.6713 14.3714 23.5597 15.0468 24.227L22.616 29.715C22.9173 30.0133 23.0914 30.4286 23.0914 30.8516V41.0357C23.0914 41.4124 23.3122 41.7544 23.6589 41.9113C23.7888 41.9717 23.9278 42 24.0655 42C24.294 42 24.52 41.9203 24.6993 41.7673L28.3371 38.6803C29.1307 38.0091 29.5852 37.0294 29.5852 35.9957V30.8786C29.5852 30.4453 29.7658 30.0223 30.0814 29.7214L37.909 24.245C38.6026 23.5829 39 22.6546 39 21.7006V20.25C39.0013 19.0093 37.9818 18 36.7285 18Z" fill="black"/>
<path d="M36.7285 18H16.2728C15.0195 18 14 19.0093 14 20.25V21.7263C14 22.6713 14.3714 23.5597 15.0468 24.227L22.616 29.715C22.9173 30.0133 23.0914 30.4286 23.0914 30.8516V41.0357C23.0914 41.4124 23.3122 41.7544 23.6589 41.9113C23.7888 41.9717 23.9278 42 24.0655 42C24.294 42 24.52 41.9203 24.6993 41.7673L28.3371 38.6803C29.1307 38.0091 29.5852 37.0294 29.5852 35.9957V30.8786C29.5852 30.4453 29.7658 30.0223 30.0814 29.7214L37.909 24.245C38.6026 23.5829 39 22.6546 39 21.7006V20.25C39.0013 19.0093 37.9818 18 36.7285 18Z" fill="url(#paint7_linear_1878_2892)"/>
</g>
<defs>
<linearGradient id="paint0_linear_1878_2892" x1="30.5" y1="14" x2="30.5" y2="19.6538" gradientUnits="userSpaceOnUse">
<stop stop-color="white"/>
<stop offset="1" stop-color="#E9CEFF"/>
</linearGradient>
<linearGradient id="paint1_linear_1878_2892" x1="30" y1="41" x2="30" y2="47.4615" gradientUnits="userSpaceOnUse">
<stop stop-color="white"/>
<stop offset="1" stop-color="#E9CEFF"/>
</linearGradient>
<linearGradient id="paint2_linear_1878_2892" x1="22" y1="15" x2="22" y2="19.8462" gradientUnits="userSpaceOnUse">
<stop stop-color="white"/>
<stop offset="1" stop-color="#E9CEFF"/>
</linearGradient>
<linearGradient id="paint3_linear_1878_2892" x1="30.5" y1="6" x2="30.5" y2="11.6538" gradientUnits="userSpaceOnUse">
<stop stop-color="white"/>
<stop offset="1" stop-color="#E9CEFF"/>
</linearGradient>
<linearGradient id="paint4_linear_1878_2892" x1="36.5" y1="12" x2="36.5" y2="16.0385" gradientUnits="userSpaceOnUse">
<stop stop-color="white"/>
<stop offset="1" stop-color="#E9CEFF"/>
</linearGradient>
<linearGradient id="paint5_linear_1878_2892" x1="23.5" y1="9" x2="23.5" y2="13.0385" gradientUnits="userSpaceOnUse">
<stop stop-color="white"/>
<stop offset="1" stop-color="#E9CEFF"/>
</linearGradient>
<linearGradient id="paint6_linear_1878_2892" x1="16.5" y1="12" x2="16.5" y2="16.0385" gradientUnits="userSpaceOnUse">
<stop stop-color="white"/>
<stop offset="1" stop-color="#E9CEFF"/>
</linearGradient>
<linearGradient id="paint7_linear_1878_2892" x1="26.5" y1="18" x2="26.5" y2="39.8077" gradientUnits="userSpaceOnUse">
<stop stop-color="white"/>
<stop offset="1" stop-color="#E9CEFF"/>
</linearGradient>
</defs>
</svg>
