<svg width="20" height="20" viewBox="0 0 20 20" fill="none" xmlns="http://www.w3.org/2000/svg">
<g clip-path="url(#clip0_1878_762)">
<path d="M10.0034 4.86499C7.16754 4.86499 4.8717 7.16332 4.8717 9.99666C4.8717 12.8325 7.17004 15.1283 10.0034 15.1283C12.8392 15.1283 15.135 12.83 15.135 9.99666C15.135 7.16082 12.8367 4.86499 10.0034 4.86499V4.86499ZM10.0034 13.3275C8.16254 13.3275 6.67254 11.8367 6.67254 9.99666C6.67254 8.15666 8.16337 6.66582 10.0034 6.66582C11.8434 6.66582 13.3342 8.15666 13.3342 9.99666C13.335 11.8367 11.8442 13.3275 10.0034 13.3275V13.3275Z" fill="#FF6435"/>
<path d="M14.1233 0.0633105C12.2833 -0.0225228 7.72578 -0.0183562 5.88411 0.0633105C4.26578 0.139144 2.83828 0.529977 1.68745 1.68081C-0.235888 3.60414 0.00994525 6.19581 0.00994525 9.99664C0.00994525 13.8866 -0.206721 16.4183 1.68745 18.3125C3.61828 20.2425 6.24745 19.99 10.0033 19.99C13.8566 19.99 15.1866 19.9925 16.5491 19.465C18.4016 18.7458 19.7999 17.09 19.9366 14.1158C20.0233 12.275 20.0183 7.71831 19.9366 5.87664C19.7716 2.36581 17.8874 0.236644 14.1233 0.0633105V0.0633105ZM17.0358 17.04C15.7749 18.3008 14.0258 18.1883 9.97911 18.1883C5.81245 18.1883 4.14161 18.25 2.92245 17.0275C1.51828 15.63 1.77245 13.3858 1.77245 9.98331C1.77245 5.37914 1.29995 2.06331 5.92078 1.82664C6.98245 1.78914 7.29495 1.77664 9.96745 1.77664L10.0049 1.80164C14.4458 1.80164 17.9299 1.33664 18.1391 5.95664C18.1866 7.01081 18.1974 7.32748 18.1974 9.99581C18.1966 14.1141 18.2749 15.795 17.0358 17.04V17.04Z" fill="#FF6435"/>
<path d="M15.3383 5.86147C16.0006 5.86147 16.5375 5.32458 16.5375 4.6623C16.5375 4.00002 16.0006 3.46313 15.3383 3.46313C14.676 3.46313 14.1392 4.00002 14.1392 4.6623C14.1392 5.32458 14.676 5.86147 15.3383 5.86147Z" fill="#FF6435"/>
</g>
<defs>
<clipPath id="clip0_1878_762">
<rect width="20" height="20" fill="white"/>
</clipPath>
</defs>
</svg>
