<svg width="28" height="28" viewBox="0 0 28 28" fill="none" xmlns="http://www.w3.org/2000/svg">
<circle cx="14" cy="14.0001" r="14" fill="#8D4AFF"/>
<mask id="mask0_1878_2358" style="mask-type:alpha" maskUnits="userSpaceOnUse" x="0" y="0" width="28" height="29">
<circle cx="14" cy="14.0001" r="14" fill="#FF6435"/>
</mask>
<g mask="url(#mask0_1878_2358)">
<circle cx="11.5" cy="11.5001" r="2.5" fill="#D9D9D9"/>
<circle cx="11.5" cy="11.5001" r="2.5" fill="url(#paint0_linear_1878_2358)"/>
<circle cx="16.5" cy="7.50012" r="2.5" fill="#D9D9D9"/>
<circle cx="16.5" cy="7.50012" r="2.5" fill="url(#paint1_linear_1878_2358)"/>
<path d="M21.6667 12.0001H6.66667C5.74762 12.0001 5 12.7477 5 13.6668V15.5011C5 16.2011 5.27238 16.8592 5.76762 17.3535L11.3181 22.9001C11.539 23.1211 11.6667 23.4287 11.6667 23.742V31.2858C11.6667 31.5649 11.8286 31.8182 12.0829 31.9344C12.1781 31.9792 12.28 32.0001 12.381 32.0001C12.5486 32.0001 12.7143 31.9411 12.8457 31.8277L15.5133 29.5411C16.0952 29.0439 16.4286 28.3182 16.4286 27.5525V23.762C16.4286 23.4411 16.561 23.1277 16.7924 22.9049L22.5324 17.3668C23.041 16.8763 23.3324 16.1887 23.3324 15.482V13.6668C23.3333 12.7477 22.5857 12.0001 21.6667 12.0001V12.0001Z" fill="#D9D9D9"/>
<path d="M21.6667 12.0001H6.66667C5.74762 12.0001 5 12.7477 5 13.6668V15.5011C5 16.2011 5.27238 16.8592 5.76762 17.3535L11.3181 22.9001C11.539 23.1211 11.6667 23.4287 11.6667 23.742V31.2858C11.6667 31.5649 11.8286 31.8182 12.0829 31.9344C12.1781 31.9792 12.28 32.0001 12.381 32.0001C12.5486 32.0001 12.7143 31.9411 12.8457 31.8277L15.5133 29.5411C16.0952 29.0439 16.4286 28.3182 16.4286 27.5525V23.762C16.4286 23.4411 16.561 23.1277 16.7924 22.9049L22.5324 17.3668C23.041 16.8763 23.3324 16.1887 23.3324 15.482V13.6668C23.3333 12.7477 22.5857 12.0001 21.6667 12.0001V12.0001Z" fill="url(#paint2_linear_1878_2358)"/>
</g>
<defs>
<linearGradient id="paint0_linear_1878_2358" x1="11.5" y1="9.00012" x2="11.5" y2="13.0386" gradientUnits="userSpaceOnUse">
<stop stop-color="white"/>
<stop offset="1" stop-color="#E9CEFF"/>
</linearGradient>
<linearGradient id="paint1_linear_1878_2358" x1="16.5" y1="5.00012" x2="16.5" y2="9.03858" gradientUnits="userSpaceOnUse">
<stop stop-color="white"/>
<stop offset="1" stop-color="#E9CEFF"/>
</linearGradient>
<linearGradient id="paint2_linear_1878_2358" x1="14.1662" y1="12.0001" x2="14.1662" y2="28.154" gradientUnits="userSpaceOnUse">
<stop stop-color="white"/>
<stop offset="1" stop-color="#E9CEFF"/>
</linearGradient>
</defs>
</svg>
