<svg width="124" height="37" viewBox="0 0 124 37" fill="none" xmlns="http://www.w3.org/2000/svg">
<path fill-rule="evenodd" clip-rule="evenodd" d="M26.8496 31.2353C27.4582 30.3483 28.6727 30.1213 29.5624 30.7273L32.9637 33.0379C33.8559 33.6439 34.0829 34.8533 33.4769 35.7403C32.8683 36.6274 31.6537 36.8569 30.7615 36.2509L27.3602 33.9378C26.4705 33.3318 26.241 32.1224 26.8496 31.2353ZM23.8067 26.8335L25.0625 26.0289C25.9651 25.4513 26.5092 24.4559 26.5092 23.3909V14.8656C26.5092 12.6737 26.4886 11.9904 26.3055 11.4024C26.125 10.8222 25.831 10.2833 25.439 9.8191C25.0419 9.34978 24.4746 8.96297 22.6231 7.77676L19.7813 5.95877C17.6178 4.57658 16.9267 4.16656 16.2382 4.00668C15.56 3.84938 14.8534 3.84938 14.1752 4.00668C13.4867 4.16656 12.7956 4.57658 10.6346 5.95877L6.66598 8.49622C5.97746 8.93718 5.76343 9.07901 5.5855 9.22342C4.65974 9.97383 4.06663 11.0543 3.93254 12.2354C3.90933 12.4442 3.90417 12.6763 3.90417 13.3468L23.8067 26.8335ZM13.2907 0.218546C14.5517 -0.0728488 15.8617 -0.0728488 17.1227 0.218546C18.5564 0.551201 19.8458 1.37897 21.6199 2.5136C21.7076 2.57033 21.7979 2.62964 21.8907 2.68896L24.7325 4.50695C24.8124 4.55595 24.8872 4.60494 24.9645 4.65394C26.4886 5.62869 27.6 6.33784 28.4252 7.31517C29.155 8.17904 29.7016 9.177 30.0369 10.2523C30.4159 11.4746 30.4159 12.7898 30.4134 14.5923C30.4134 14.6826 30.4134 14.7728 30.4134 14.8656V23.3909C30.4134 25.7813 29.1936 28.0068 27.1745 29.2987L21.8907 32.6794C21.7979 32.7387 21.7076 32.7955 21.6199 32.8548C19.8458 33.9894 18.5564 34.8172 17.1227 35.1472C15.8617 35.4386 14.5517 35.4386 13.2907 35.1472C11.8595 34.8172 10.5676 33.9894 8.796 32.8548C8.70574 32.7955 8.61549 32.7387 8.52265 32.6794L4.80415 30.2993C4.76547 30.276 4.72421 30.2503 4.68553 30.2245C3.90933 29.7268 3.34201 29.3658 2.85206 28.9325C1.37445 27.6303 0.399701 25.8561 0.0979912 23.9144C0.0464175 23.5688 0.0206297 22.8597 0.0103149 22.117C0.00515776 21.8643 0.00257839 21.7379 0.018051 21.6245C0.108306 20.8844 0.701411 20.2835 1.43892 20.1804C1.55239 20.1649 1.68648 20.1649 1.95209 20.1649C2.22285 20.1649 2.35952 20.1649 2.47041 20.1804C3.2105 20.281 3.7804 20.8431 3.89128 21.5806C3.90933 21.6941 3.90933 21.8333 3.91449 22.117C3.92223 22.6946 3.93512 23.1691 3.95833 23.3187C4.12079 24.3631 4.64427 25.3198 5.44109 26.0212C5.67575 26.23 5.96973 26.4234 6.91611 27.0294L10.6346 29.407C12.7956 30.7918 13.4867 31.2018 14.1752 31.3591C14.8534 31.5164 15.56 31.5164 16.2382 31.3591C16.9267 31.2018 17.6178 30.7918 19.7813 29.407L20.2352 29.1156L1.54981 16.4541C1.54207 16.449 1.53434 16.4412 1.52402 16.4361C1.43119 16.3742 1.28162 16.271 1.13979 16.1524C0.510585 15.6161 0.108306 14.8631 0.018051 14.0405C-1.6477e-07 13.8599 0 13.6769 0 13.566C0 13.5557 0 13.5453 0 13.535C0 13.5015 0 13.4654 0 13.4319C0 12.7614 1.67229e-07 12.2715 0.054153 11.7996C0.30171 9.60765 1.40282 7.60141 3.12025 6.20632C3.489 5.90719 3.9016 5.64416 4.46891 5.28056C4.49728 5.26251 4.52822 5.24446 4.55659 5.22641L8.52265 2.68896C8.61549 2.62964 8.70574 2.57033 8.796 2.5136C10.5676 1.37897 11.8595 0.551201 13.2907 0.218546Z" fill="#FF6435"/>
<path d="M56.7106 32.2432V8.04527L54.228 7.83771C53.6239 7.78721 53.0156 7.83803 52.4283 7.9881C52.2795 8.0261 52.1355 8.08132 51.9957 8.14462C49.996 9.0496 50.0474 7.6195 47.0953 7.6195C42.0215 7.6195 38.7218 11.6288 38.7218 16.7381C38.7218 21.9892 42.2699 25.9276 47.2372 25.9276C49.5435 25.9276 51.282 25.0761 52.0981 23.7633V31.5891C52.0981 31.983 52.341 32.3361 52.709 32.4769C53.1069 32.6291 53.5368 32.6785 53.9589 32.6206L56.7106 32.2432ZM43.4762 16.7381C43.4762 13.6158 45.3922 11.8417 47.8049 11.8417C50.2176 11.8417 52.1336 13.6158 52.1336 16.7381C52.1336 19.8604 50.2176 21.7054 47.8049 21.7054C45.3922 21.7054 43.4762 19.8604 43.4762 16.7381Z" fill="white"/>
<path d="M67.8272 21.7409C65.5209 21.7409 63.3921 20.0378 63.3921 16.7736C63.3921 13.4738 65.5209 11.8062 67.8272 11.8062C70.1334 11.8062 72.2623 13.4738 72.2623 16.7736C72.2623 20.0733 70.1334 21.7409 67.8272 21.7409ZM67.8272 7.51305C62.6115 7.51305 58.6731 11.3805 58.6731 16.7736C58.6731 22.1312 62.6115 26.034 67.8272 26.034C73.0429 26.034 76.9812 22.1312 76.9812 16.7736C76.9812 11.3805 73.0429 7.51305 67.8272 7.51305Z" fill="white"/>
<path d="M89.3507 7.97431C88.9959 7.93882 88.6411 7.90334 88.2508 7.90334C86.7606 7.90334 84.3479 7.22034 83.2835 9.52659L82.9486 9.15518C81.8823 7.97256 80.2153 7.53642 78.7065 8.04527V25.5018H83.4254V17.5186C83.4254 13.7577 85.5188 12.5868 87.9315 12.5868C88.3573 12.5868 88.8185 12.6223 89.3507 12.7287V7.97431Z" fill="white"/>
<path d="M102.96 25.5018H107.466C107.395 24.8987 107.289 23.6923 107.289 22.344V8.04527H102.57V18.1928C102.57 20.2152 101.363 21.6344 99.2698 21.6344C97.07 21.6344 96.0766 20.0733 96.0766 18.1218V8.04527H91.3576V19.0798C91.3576 22.8763 93.7703 25.9631 97.9925 25.9631C99.8375 25.9631 101.86 25.2535 102.818 23.6214C102.818 24.331 102.889 25.147 102.96 25.5018Z" fill="white"/>
<path d="M121.072 25.4628C121.935 25.4861 122.715 24.9532 123.008 24.1411L124 21.3861H115.343L123.858 11.9836V8.04527L121.409 8.31581L112.627 8.08416C111.751 8.06104 110.961 8.61172 110.68 9.44241L109.772 12.1256H117.826L109.559 21.3506V25.5018L112.262 25.2246L121.072 25.4628Z" fill="white"/>
</svg>
