<svg width="18" height="18" viewBox="0 0 18 18" fill="none" xmlns="http://www.w3.org/2000/svg">
<path d="M13.9091 0H4.09091C1.83518 0 0 1.83518 0 4.09091V10.6364C0 12.6115 1.40809 14.2642 3.27273 14.6446V17.1818C3.27273 17.4837 3.43882 17.7611 3.70473 17.9035C3.82582 17.9681 3.95836 18 4.09091 18C4.24964 18 4.40755 17.9534 4.545 17.8625L9.24791 14.7273H13.9091C16.1648 14.7273 18 12.8921 18 10.6364V4.09091C18 1.83518 16.1648 0 13.9091 0ZM8.54591 13.2284L4.90909 15.6526V13.9091C4.90909 13.4575 4.54255 13.0909 4.09091 13.0909C2.73764 13.0909 1.63636 11.9896 1.63636 10.6364V4.09091C1.63636 2.73764 2.73764 1.63636 4.09091 1.63636H13.9091C15.2624 1.63636 16.3636 2.73764 16.3636 4.09091V10.6364C16.3636 11.9896 15.2624 13.0909 13.9091 13.0909H9C8.94273 13.0901 8.86091 13.0958 8.76764 13.1236C8.66945 13.1523 8.595 13.1948 8.54591 13.2284Z" fill="white"/>
<path d="M13.9091 4.90912H4.09089C3.63925 4.90912 3.27271 5.27566 3.27271 5.7273C3.27271 6.17894 3.63925 6.54548 4.09089 6.54548H13.9091C14.3607 6.54548 14.7273 6.17894 14.7273 5.7273C14.7273 5.27566 14.3607 4.90912 13.9091 4.90912Z" fill="white"/>
<path d="M12.2728 8.18182H5.72736C5.27573 8.18182 4.90918 8.54837 4.90918 9.00001C4.90918 9.45164 5.27573 9.81819 5.72736 9.81819H12.2728C12.7245 9.81819 13.091 9.45164 13.091 9.00001C13.091 8.54837 12.7245 8.18182 12.2728 8.18182Z" fill="white"/>
</svg>
