<svg width="54" height="54" viewBox="0 0 54 54" fill="none" xmlns="http://www.w3.org/2000/svg">
<circle cx="27" cy="27" r="27" fill="#8D4AFF"/>
<path fill-rule="evenodd" clip-rule="evenodd" d="M44.9037 35.9237C46.2453 33.2374 47 30.2068 47 27C47 15.9543 38.0457 7 27 7C15.9543 7 7 15.9543 7 27C7 38.0457 15.9543 47 27 47C31.5033 47 35.659 45.5116 39.002 43C39.0013 43 39.0006 43 39 43C35.6863 43 33 40.3137 33 37C33 33.6863 35.6863 31 39 31C41.9463 31 44.3966 33.1236 44.9037 35.9237ZM19 19.25C19 18.5597 19.5511 18 20.2308 18H33.7692C34.449 18 35 18.5597 35 19.25C35 19.9404 34.449 20.5 33.7692 20.5H28.8463C29.3935 21.241 29.7708 22.0954 29.9526 23H33.7692C34.449 23 35 23.5597 35 24.25C35 24.9404 34.449 25.5 33.7692 25.5H29.9526C29.7131 26.6918 29.1341 27.7964 28.2746 28.6694C27.1205 29.8415 25.5552 30.5 23.9231 30.5H23.2022L28.4858 35.8662C28.9664 36.3543 28.9664 37.1458 28.4858 37.6339C28.005 38.122 27.2258 38.122 26.7451 37.6339L19.3605 30.1339C19.0085 29.7764 18.9032 29.2388 19.0937 28.7716C19.2842 28.3045 19.733 28 20.2308 28H23.9231C24.9025 28 25.8416 27.6049 26.5339 26.9016C26.927 26.5024 27.2223 26.0224 27.4042 25.5H20.2308C19.551 25.5 19 24.9404 19 24.25C19 23.5597 19.551 23 20.2308 23H27.4042C27.2224 22.4776 26.9271 21.9976 26.534 21.5984C25.8416 20.8952 24.9024 20.5 23.9231 20.5H20.2308C19.5511 20.5 19 19.9404 19 19.25Z" fill="#D9D9D9"/>
<path fill-rule="evenodd" clip-rule="evenodd" d="M44.9037 35.9237C46.2453 33.2374 47 30.2068 47 27C47 15.9543 38.0457 7 27 7C15.9543 7 7 15.9543 7 27C7 38.0457 15.9543 47 27 47C31.5033 47 35.659 45.5116 39.002 43C39.0013 43 39.0006 43 39 43C35.6863 43 33 40.3137 33 37C33 33.6863 35.6863 31 39 31C41.9463 31 44.3966 33.1236 44.9037 35.9237ZM19 19.25C19 18.5597 19.5511 18 20.2308 18H33.7692C34.449 18 35 18.5597 35 19.25C35 19.9404 34.449 20.5 33.7692 20.5H28.8463C29.3935 21.241 29.7708 22.0954 29.9526 23H33.7692C34.449 23 35 23.5597 35 24.25C35 24.9404 34.449 25.5 33.7692 25.5H29.9526C29.7131 26.6918 29.1341 27.7964 28.2746 28.6694C27.1205 29.8415 25.5552 30.5 23.9231 30.5H23.2022L28.4858 35.8662C28.9664 36.3543 28.9664 37.1458 28.4858 37.6339C28.005 38.122 27.2258 38.122 26.7451 37.6339L19.3605 30.1339C19.0085 29.7764 18.9032 29.2388 19.0937 28.7716C19.2842 28.3045 19.733 28 20.2308 28H23.9231C24.9025 28 25.8416 27.6049 26.5339 26.9016C26.927 26.5024 27.2223 26.0224 27.4042 25.5H20.2308C19.551 25.5 19 24.9404 19 24.25C19 23.5597 19.551 23 20.2308 23H27.4042C27.2224 22.4776 26.9271 21.9976 26.534 21.5984C25.8416 20.8952 24.9024 20.5 23.9231 20.5H20.2308C19.5511 20.5 19 19.9404 19 19.25Z" fill="url(#paint0_linear_1878_2923)"/>
<circle cx="40" cy="37" r="7" fill="#8D4AFF"/>
<path d="M40.8716 39.5871C40.673 39.8077 40.327 39.8077 40.1284 39.5871L36.751 35.8345C36.4614 35.5127 36.6898 35 37.1227 35H43.8773C44.3102 35 44.5386 35.5127 44.249 35.8345L40.8716 39.5871Z" fill="white"/>
<path d="M40.8716 39.5871C40.673 39.8077 40.327 39.8077 40.1284 39.5871L36.751 35.8345C36.4614 35.5127 36.6898 35 37.1227 35H43.8773C44.3102 35 44.5386 35.5127 44.249 35.8345L40.8716 39.5871Z" fill="url(#paint1_linear_1878_2923)"/>
<defs>
<linearGradient id="paint0_linear_1878_2923" x1="27" y1="7" x2="27" y2="39.3077" gradientUnits="userSpaceOnUse">
<stop stop-color="white"/>
<stop offset="1" stop-color="#E9CEFF"/>
</linearGradient>
<linearGradient id="paint1_linear_1878_2923" x1="40.5001" y1="40" x2="40.5001" y2="34.6154" gradientUnits="userSpaceOnUse">
<stop stop-color="white"/>
<stop offset="1" stop-color="#E9CEFF"/>
</linearGradient>
</defs>
</svg>
